# xmcd CD database file
#
# Track frame offsets:
#	150
#	14892
#	29279
#	42263
#	57084
#	70915
#	85345
#	99171
#	113826
#	127956
#	142081
#	155269
#	168995
#	181829
#	194559
#	207876
#	220986
#	235691
#	250158
#	263118
#	276502
#	289600
#	302921
#
# Disc length: 4210 seconds
#
# Revision: 1
# Processed by: cddbd v1.5.2PL0 Copyright (c) Steve Scherf et al.
# Submitted via: CDex 1.70beta2
#
DISCID=50107017
DTITLE=Blind Willie McTell - The Ultimate Jazz Archive Set 11
DYEAR=2005
DGENRE=Blues
TTITLE0=Rough Alley Blues
TTITLE1=Expirience Blues
TTITLE2=Painful Blues
TTITLE3=Low Rider's Blues
TTITLE4=Georgia Rag
TTITLE5=Low Down Blues
TTITLE6=Rollin' Mama Blues
TTITLE7=Lonesome Day Blues
TTITLE8=Mama, Let Me Scope For You
TTITLE9=Searching The Dessert For The Blues
TTITLE10=Warm It Up To Me
TTITLE11=It's Your Time To Worry
TTITLE12=It's A Good Little Thing
TTITLE13=You Was Born To Die
TTITLE14=Lord Have Mercy If You Please
TTITLE15=Don't You See How This World Made A Change
TTITLE16=Savannah Mama
TTITLE17=Broke Down Engine
TTITLE18=Broke Down Engine No 2
TTITLE19=My Baby's Gone
TTITLE20=Love-Makin' Mama
TTITLE21=Death Room Blues
TTITLE22=Lord, Send Me An Angel
EXTD=YEAR: 2005
EXTT0=
EXTT1=
EXTT2=
EXTT3=
EXTT4=
EXTT5=
EXTT6=
EXTT7=
EXTT8=
EXTT9=
EXTT10=
EXTT11=
EXTT12=
EXTT13=
EXTT14=
EXTT15=
EXTT16=
EXTT17=
EXTT18=
EXTT19=
EXTT20=
EXTT21=
EXTT22=
PLAYORDER=
